<svg xmlns="http://www.w3.org/2000/svg" viewBox="0 0 512 512"><circle cx="256" cy="256" r="251" fill="#fb6d51"/><path d="M432.5 213.375c0 22.023-21.5 39.875-48 39.875s-48-17.852-48-39.875 21.5-39.875 48-39.875 48 17.852 48 39.875zm-274.008 19.664c0 22.023-21.492 39.883-48 39.883s-48-17.859-48-39.883 21.492-39.875 48-39.875 48 17.852 48 39.875zm57.18 153.695c0 15.063-14.703 27.266-32.836 27.266-18.125 0-32.828-12.203-32.828-27.266s14.703-27.281 32.828-27.281c18.133 0 32.836 12.219 32.836 27.281z" fill="#424953"/><path d="M256 0C114.609 0 0 114.617 0 256c0 141.391 114.609 256 256 256s256-114.609 256-256C512 114.617 397.391 0 256 0zm165.938 421.938c-21.563 21.547-46.656 38.484-74.594 50.297-28.922 12.234-59.656 18.438-91.344 18.438-29 0-57.188-5.219-83.906-15.469 3.234.078 6.594.125 10.141.125 15.938 0 34.984-.781 57.703-2.688 57.672-4.844 107.188-35.641 109.266-36.938v-.016c3-1.891 4.984-5.219 4.984-9.016 0-5.906-4.766-10.672-10.656-10.672-2.094 0-4.031.609-5.688 1.641 0 0-47.141 29.328-99.688 33.75-82.625 6.938-112.156-2.031-119.5-5.094a237.096 237.096 0 0 1-28.593-24.358c-21.563-21.563-38.484-46.656-50.297-74.609C27.531 318.422 21.328 287.688 21.328 256s6.203-62.422 18.438-91.336c9.609-22.703 22.578-43.531 38.672-62.109 4.063 5.234 11.75 13.086 25.078 20.234 21.219 11.383 48.859 17.102 82.406 17.102 9.016 0 18.453-.406 28.297-1.234 55.281-4.641 105.234-20.602 109.094-21.859 4.266-1.391 7.359-5.398 7.359-10.133C330.672 100.773 325.891 96 320 96c-1.156 0-2.281.188-3.313.531-.5.164-50.375 16.344-104.25 20.867-51.188 4.297-80.938-4.367-96.859-12.391-16.672-8.383-21.844-17.766-21.891-17.859.063.117.094.18.094.18l-1.813.883c21.125-20.672 45.563-36.969 72.688-48.445 28.922-12.234 59.656-18.43 91.344-18.43s62.422 6.195 91.344 18.43c27.938 11.82 53.031 28.742 74.594 50.297 21.563 21.563 38.484 46.656 50.297 74.602 12.234 28.914 18.438 59.648 18.438 91.336a235.33 235.33 0 0 1-6.375 54.547c-10.391 2.406-42.078 9.125-86.141 12.813-100.813 8.467-136.157-12.189-136.516-12.408-1.656-1.063-3.516-1.625-5.641-1.625-5.891 0-10.672 4.781-10.672 10.672 0 3.766 1.969 7.078 4.922 8.969 1.078.703 11.297 6.953 34.906 11.844 19.188 3.969 41.453 5.953 66.578 5.953 15.063 0 31.156-.719 48.203-2.156 34.672-2.906 61.625-7.547 77.5-10.75a224.506 224.506 0 0 1-5.203 13.469c-11.812 27.952-28.734 53.046-50.296 74.609z"/><path d="M384 266.672c35.344 0 64-23.883 64-53.336C448 183.875 419.344 160 384 160s-64 23.875-64 53.336c0 29.453 28.656 53.336 64 53.336zm-31.594-74.664c8.141-6.781 19.656-10.672 31.594-10.672s23.453 3.891 31.594 10.672c7.141 5.953 11.078 13.523 11.078 21.328 0 7.797-3.938 15.375-11.078 21.32-8.141 6.789-19.656 10.68-31.594 10.68s-23.453-3.891-31.594-10.68c-7.141-5.945-11.078-13.523-11.078-21.32 0-7.805 3.938-15.375 11.078-21.328zM184.344 352c-23.563 0-42.672 14.328-42.672 32s19.109 32 42.672 32S227 401.672 227 384s-19.094-32-42.656-32zm0 42.672C171.109 394.672 163 387.766 163 384s8.109-10.672 21.344-10.672 21.328 6.906 21.328 10.672-8.094 10.672-21.328 10.672zm-20.516-160.008c0-23.563-23.891-42.664-53.344-42.664s-53.328 19.102-53.328 42.664 23.875 42.664 53.328 42.664 53.344-19.101 53.344-42.664zm-28.953 13.516c-6.219 4.969-15.109 7.82-24.391 7.82s-18.172-2.852-24.375-7.82c-2.844-2.273-7.625-7.055-7.625-13.516 0-6.453 4.781-11.234 7.625-13.508 6.203-4.969 15.094-7.82 24.375-7.82s18.172 2.852 24.391 7.82c2.844 2.273 7.609 7.055 7.609 13.508 0 6.461-4.765 11.242-7.609 13.516z"/></svg>